<svg version="1.1" viewBox="0.0 0.0 816.0 1056.0" fill="none" stroke="none" stroke-linecap="square" stroke-miterlimit="10" xmlns:xlink="http://www.w3.org/1999/xlink" xmlns="http://www.w3.org/2000/svg"><clipPath id="g63c1c714ac_0_61.0"><path d="m0 0l816.0 0l0 1056.0l-816.0 0l0 -1056.0z" clip-rule="nonzero"/></clipPath><g clip-path="url(#g63c1c714ac_0_61.0)"><path fill="#a4c2f4" d="m0 0l816.0 0l0 1056.0l-816.0 0z" fill-rule="evenodd"/><path fill="#1c4587" d="m0 978.5381l816.0 0l0 77.44873l-816.0 0z" fill-rule="evenodd"/><path fill="#000000" fill-opacity="0.0" d="m250.80315 995.042l314.39368 0l0 44.440918l-314.39368 0z" fill-rule="evenodd"/><path fill="#ffffff" d="m376.1689 1024.1825l0 -13.359375l1.78125 0l0 11.78125l6.5625305 0l0 1.578125l-8.3437805 0zm9.641357 -4.84375q0 -2.6875 1.484375 -3.96875q1.25 -1.078125 3.046875 -1.078125q2.0 0 3.265625 1.3125q1.265625 1.296875 1.265625 3.609375q0 1.859375 -0.5625 2.9375q-0.5625 1.0625 -1.640625 1.65625q-1.0625 0.59375 -2.328125 0.59375q-2.03125 0 -3.28125 -1.296875q-1.25 -1.3125 -1.25 -3.765625zm1.6875 0q0 1.859375 0.796875 2.796875q0.8125 0.921875 2.046875 0.921875q1.21875 0 2.03125 -0.921875q0.8125 -0.9375 0.8125 -2.84375q0 -1.796875 -0.8125 -2.71875q-0.8125 -0.921875 -2.03125 -0.921875q-1.234375 0 -2.046875 0.921875q-0.796875 0.90625 -0.796875 2.765625zm8.985107 5.640625l1.59375 0.234375q0.109375 0.75 0.5625 1.078125q0.609375 0.453125 1.671875 0.453125q1.140625 0 1.75 -0.453125q0.625 -0.453125 0.84375 -1.265625q0.125 -0.5 0.109375 -2.109375q-1.0625 1.265625 -2.671875 1.265625q-2.0 0 -3.09375 -1.4375q-1.09375 -1.4375 -1.09375 -3.453125q0 -1.390625 0.5 -2.5625q0.515625 -1.171875 1.453125 -1.796875q0.953125 -0.640625 2.25 -0.640625q1.703125 0 2.8125 1.375l0 -1.15625l1.515625 0l0 8.359375q0 2.265625 -0.46875 3.203125q-0.453125 0.9375 -1.453125 1.484375q-0.984375 0.546875 -2.453125 0.546875q-1.71875 0 -2.796875 -0.78125q-1.0625 -0.765625 -1.03125 -2.34375zm1.359375 -5.8125q0 1.90625 0.75 2.78125q0.765625 0.875 1.90625 0.875q1.125 0 1.890625 -0.859375q0.765625 -0.875 0.765625 -2.734375q0 -1.78125 -0.796875 -2.671875q-0.78125 -0.90625 -1.890625 -0.90625q-1.09375 0 -1.859375 0.890625q-0.765625 0.875 -0.765625 2.625zm14.184021 -1.484375q0 -3.328125 1.78125 -5.203125q1.78125 -1.890625 4.609375 -1.890625q1.84375 0 3.328125 0.890625q1.484375 0.875 2.265625 2.46875q0.78125 1.578125 0.78125 3.578125q0 2.03125 -0.828125 3.640625q-0.8125 1.59375 -2.3125 2.421875q-1.5 0.828125 -3.25 0.828125q-1.875 0 -3.359375 -0.90625q-1.484375 -0.921875 -2.25 -2.5q-0.765625 -1.578125 -0.765625 -3.328125zm1.8125 0.015625q0 2.421875 1.296875 3.8125q1.296875 1.390625 3.265625 1.390625q2.0 0 3.28125 -1.40625q1.28125 -1.40625 1.28125 -3.984375q0 -1.625 -0.546875 -2.84375q-0.546875 -1.21875 -1.609375 -1.875q-1.0625 -0.671875 -2.375 -0.671875q-1.890625 0 -3.25 1.296875q-1.34375 1.28125 -1.34375 4.28125zm19.355164 6.484375l0 -1.421875q-1.125 1.640625 -3.0625 1.640625q-0.859375 0 -1.609375 -0.328125q-0.734375 -0.328125 -1.09375 -0.828125q-0.359375 -0.5 -0.5 -1.21875q-0.109375 -0.46875 -0.109375 -1.53125l0 -5.984375l1.640625 0l0 5.359375q0 1.28125 0.109375 1.734375q0.15625 0.640625 0.65625 1.015625q0.5 0.375 1.234375 0.375q0.734375 0 1.375 -0.375q0.65625 -0.390625 0.921875 -1.03125q0.265625 -0.65625 0.265625 -1.890625l0 -5.1875l1.640625 0l0 9.671875l-1.46875 0zm7.6257324 -1.46875l0.234375 1.453125q-0.6875 0.140625 -1.234375 0.140625q-0.890625 0 -1.390625 -0.28125q-0.484375 -0.28125 -0.6875 -0.734375q-0.203125 -0.46875 -0.203125 -1.9375l0 -5.578125l-1.203125 0l0 -1.265625l1.203125 0l0 -2.390625l1.625 -0.984375l0 3.375l1.65625 0l0 1.265625l-1.65625 0l0 5.671875q0 0.6875 0.078125 0.890625q0.09375 0.203125 0.28125 0.328125q0.203125 0.109375 0.578125 0.109375q0.265625 0 0.71875 -0.0625z" fill-rule="nonzero"/><path fill="#f1c232" d="m81.637794 132.52615l0 0c0 -33.555237 27.201889 -60.757126 60.75712 -60.757126l531.2102 0c16.11377 0 31.567566 6.4011765 42.96173 17.79535c11.394165 11.394173 17.79535 26.847984 17.79535 42.961777l0 243.02118c0 33.555237 -27.201843 60.75714 -60.75708 60.75714l-531.2102 0c-33.55523 0 -60.75712 -27.201904 -60.75712 -60.75714z" fill-rule="evenodd"/><path stroke="#303030" stroke-width="1.0" stroke-linejoin="round" stroke-linecap="butt" d="m81.637794 132.52615l0 0c0 -33.555237 27.201889 -60.757126 60.75712 -60.757126l531.2102 0c16.11377 0 31.567566 6.4011765 42.96173 17.79535c11.394165 11.394173 17.79535 26.847984 17.79535 42.961777l0 243.02118c0 33.555237 -27.201843 60.75714 -60.75708 60.75714l-531.2102 0c-33.55523 0 -60.75712 -27.201904 -60.75712 -60.75714z" fill-rule="evenodd"/><path fill="#f1c232" d="m81.637794 588.75714l0 0c0 -33.555237 27.201889 -60.75714 60.75712 -60.75714l531.2102 0c16.11377 0 31.567566 6.401184 42.96173 17.79535c11.394165 11.394165 17.79535 26.847961 17.79535 42.961792l0 243.02118c0 33.555237 -27.201843 60.75714 -60.75708 60.75714l-531.2102 0c-33.55523 0 -60.75712 -27.201904 -60.75712 -60.75714z" fill-rule="evenodd"/><path stroke="#303030" stroke-width="1.0" stroke-linejoin="round" stroke-linecap="butt" d="m81.637794 588.75714l0 0c0 -33.555237 27.201889 -60.75714 60.75712 -60.75714l531.2102 0c16.11377 0 31.567566 6.401184 42.96173 17.79535c11.394165 11.394165 17.79535 26.847961 17.79535 42.961792l0 243.02118c0 33.555237 -27.201843 60.75714 -60.75708 60.75714l-531.2102 0c-33.55523 0 -60.75712 -27.201904 -60.75712 -60.75714z" fill-rule="evenodd"/><path fill="#000000" fill-opacity="0.0" d="m296.3622 192.52493l223.2756 0l0 123.02362l-223.2756 0z" fill-rule="evenodd"/><path fill="#ffffff" d="m350.35352 258.38986l3.796875 0.96875q-1.203125 4.65625 -4.296875 7.109375q-3.09375 2.453125 -7.5625 2.453125q-4.625 0 -7.53125 -1.875q-2.90625 -1.890625 -4.421875 -5.46875q-1.5 -3.578125 -1.5 -7.671875q0 -4.46875 1.703125 -7.796875q1.703125 -3.34375 4.859375 -5.0625q3.15625 -1.734375 6.953125 -1.734375q4.296875 0 7.21875 2.1875q2.9375 2.1875 4.078125 6.15625l-3.71875 0.875q-1.0 -3.125 -2.90625 -4.546875q-1.890625 -1.421875 -4.75 -1.421875q-3.3125 0 -5.53125 1.578125q-2.203125 1.578125 -3.109375 4.25q-0.890625 2.65625 -0.890625 5.5q0 3.640625 1.0625 6.375q1.0625 2.71875 3.296875 4.078125q2.25 1.34375 4.875 1.34375q3.1875 0 5.390625 -1.828125q2.203125 -1.84375 2.984375 -5.46875zm21.542969 7.484375q-1.953125 1.65625 -3.765625 2.34375q-1.796875 0.6875 -3.875 0.6875q-3.40625 0 -5.25 -1.671875q-1.828125 -1.671875 -1.828125 -4.265625q0 -1.53125 0.6875 -2.78125q0.6875 -1.265625 1.8125 -2.015625q1.125 -0.765625 2.53125 -1.15625q1.03125 -0.28125 3.125 -0.53125q4.265625 -0.515625 6.265625 -1.21875q0.03125 -0.71875 0.03125 -0.90625q0 -2.15625 -1.0 -3.03125q-1.34375 -1.1875 -4.0 -1.1875q-2.484375 0 -3.671875 0.875q-1.171875 0.859375 -1.75 3.0625l-3.4375 -0.46875q0.46875 -2.203125 1.546875 -3.5625q1.078125 -1.359375 3.109375 -2.09375q2.03125 -0.734375 4.703125 -0.734375q2.65625 0 4.3125 0.625q1.671875 0.625 2.453125 1.578125q0.78125 0.953125 1.09375 2.390625q0.171875 0.90625 0.171875 3.25l0 4.6875q0 4.890625 0.21875 6.203125q0.234375 1.296875 0.890625 2.484375l-3.671875 0q-0.546875 -1.09375 -0.703125 -2.5625zm-0.296875 -7.84375q-1.90625 0.78125 -5.734375 1.328125q-2.171875 0.3125 -3.078125 0.703125q-0.890625 0.390625 -1.375 1.140625q-0.484375 0.75 -0.484375 1.671875q0 1.40625 1.0625 2.34375q1.0625 0.9375 3.109375 0.9375q2.03125 0 3.609375 -0.890625q1.59375 -0.890625 2.328125 -2.4375q0.5625 -1.1875 0.5625 -3.515625l0 -1.28125zm8.933594 10.40625l0 -28.640625l3.515625 0l0 28.640625l-3.515625 0zm23.167969 -6.6875l3.625 0.453125q-0.859375 3.1875 -3.1875 4.953125q-2.3125 1.75 -5.9375 1.75q-4.546875 0 -7.21875 -2.796875q-2.65625 -2.8125 -2.65625 -7.875q0 -5.234375 2.6875 -8.125q2.703125 -2.890625 7.0 -2.890625q4.15625 0 6.796875 2.84375q2.640625 2.828125 2.640625 7.96875q0 0.3125 -0.03125 0.9375l-15.46875 0q0.203125 3.40625 1.9375 5.234375q1.734375 1.8125 4.34375 1.8125q1.921875 0 3.28125 -1.015625q1.375 -1.015625 2.1875 -3.25zm-11.546875 -5.671875l11.578125 0q-0.234375 -2.625 -1.328125 -3.9375q-1.671875 -2.03125 -4.359375 -2.03125q-2.421875 0 -4.078125 1.625q-1.640625 1.625 -1.8125 4.34375zm19.589844 12.359375l0 -20.75l3.15625 0l0 2.953125q2.296875 -3.421875 6.609375 -3.421875q1.875 0 3.4375 0.6875q1.578125 0.671875 2.359375 1.765625q0.78125 1.09375 1.09375 2.59375q0.203125 0.96875 0.203125 3.421875l0 12.75l-3.515625 0l0 -12.625q0 -2.140625 -0.421875 -3.203125q-0.40625 -1.0625 -1.453125 -1.703125q-1.046875 -0.640625 -2.453125 -0.640625q-2.234375 0 -3.875 1.4375q-1.625 1.421875 -1.625 5.40625l0 11.328125l-3.515625 0zm35.69922 0l0 -2.625q-1.96875 3.09375 -5.796875 3.09375q-2.484375 0 -4.5625 -1.359375q-2.078125 -1.375 -3.21875 -3.828125q-1.140625 -2.453125 -1.140625 -5.640625q0 -3.09375 1.03125 -5.625q1.03125 -2.53125 3.09375 -3.875q2.078125 -1.359375 4.640625 -1.359375q1.875 0 3.328125 0.796875q1.46875 0.796875 2.390625 2.0625l0 -10.28125l3.5 0l0 28.640625l-3.265625 0zm-11.109375 -10.359375q0 3.984375 1.671875 5.96875q1.6875 1.96875 3.96875 1.96875q2.3125 0 3.921875 -1.875q1.609375 -1.890625 1.609375 -5.765625q0 -4.25 -1.640625 -6.234375q-1.640625 -2.0 -4.046875 -2.0q-2.34375 0 -3.921875 1.921875q-1.5625 1.90625 -1.5625 6.015625zm33.433594 7.796875q-1.953125 1.65625 -3.765625 2.34375q-1.796875 0.6875 -3.875 0.6875q-3.40625 0 -5.25 -1.671875q-1.828125 -1.671875 -1.828125 -4.265625q0 -1.53125 0.6875 -2.78125q0.6875 -1.265625 1.8125 -2.015625q1.125 -0.765625 2.53125 -1.15625q1.03125 -0.28125 3.125 -0.53125q4.265625 -0.515625 6.265625 -1.21875q0.03125 -0.71875 0.03125 -0.90625q0 -2.15625 -1.0 -3.03125q-1.34375 -1.1875 -4.0 -1.1875q-2.484375 0 -3.671875 0.875q-1.171875 0.859375 -1.75 3.0625l-3.4375 -0.46875q0.46875 -2.203125 1.546875 -3.5625q1.078125 -1.359375 3.109375 -2.09375q2.03125 -0.734375 4.703125 -0.734375q2.65625 0 4.3125 0.625q1.671875 0.625 2.453125 1.578125q0.78125 0.953125 1.09375 2.390625q0.171875 0.90625 0.171875 3.25l0 4.6875q0 4.890625 0.21875 6.203125q0.234375 1.296875 0.890625 2.484375l-3.671875 0q-0.546875 -1.09375 -0.703125 -2.5625zm-0.296875 -7.84375q-1.90625 0.78125 -5.734375 1.328125q-2.171875 0.3125 -3.078125 0.703125q-0.890625 0.390625 -1.375 1.140625q-0.484375 0.75 -0.484375 1.671875q0 1.40625 1.0625 2.34375q1.0625 0.9375 3.109375 0.9375q2.03125 0 3.609375 -0.890625q1.59375 -0.890625 2.328125 -2.4375q0.5625 -1.1875 0.5625 -3.515625l0 -1.28125zm8.964844 10.40625l0 -20.75l3.171875 0l0 3.15625q1.203125 -2.21875 2.234375 -2.921875q1.03125 -0.703125 2.25 -0.703125q1.78125 0 3.625 1.140625l-1.21875 3.265625q-1.28125 -0.765625 -2.578125 -0.765625q-1.15625 0 -2.078125 0.703125q-0.90625 0.6875 -1.296875 1.90625q-0.59375 1.875 -0.59375 4.109375l0 10.859375l-3.515625 0z" fill-rule="nonzero"/><path fill="#000000" fill-opacity="0.0" d="m250.80315 645.91077l314.39368 0l0 123.02362l-314.39368 0z" fill-rule="evenodd"/><path fill="#ffffff" d="m300.85938 721.8226l0 -28.640625l10.734375 0q3.28125 0 5.265625 0.875q1.984375 0.875 3.109375 2.6875q1.125 1.796875 1.125 3.765625q0 1.84375 -1.0 3.46875q-1.0 1.609375 -3.015625 2.609375q2.609375 0.765625 4.0 2.609375q1.390625 1.828125 1.390625 4.328125q0 2.0 -0.84375 3.734375q-0.84375 1.734375 -2.09375 2.671875q-1.25 0.9375 -3.140625 1.421875q-1.890625 0.46875 -4.625 0.46875l-10.90625 0zm3.78125 -16.609375l6.1875 0q2.53125 0 3.625 -0.328125q1.4375 -0.421875 2.171875 -1.421875q0.734375 -1.0 0.734375 -2.5q0 -1.421875 -0.6875 -2.5q-0.6875 -1.09375 -1.953125 -1.484375q-1.265625 -0.40625 -4.359375 -0.40625l-5.71875 0l0 8.640625zm0 13.234375l7.125 0q1.84375 0 2.578125 -0.140625q1.3125 -0.234375 2.1875 -0.78125q0.890625 -0.546875 1.453125 -1.59375q0.5625 -1.046875 0.5625 -2.40625q0 -1.609375 -0.828125 -2.78125q-0.8125 -1.1875 -2.265625 -1.65625q-1.453125 -0.484375 -4.1875 -0.484375l-6.625 0l0 9.84375zm22.523438 3.375l0 -28.640625l3.515625 0l0 28.640625l-3.515625 0zm7.6523438 -10.375q0 -5.765625 3.203125 -8.53125q2.671875 -2.3125 6.53125 -2.3125q4.265625 0 6.984375 2.8125q2.71875 2.796875 2.71875 7.734375q0 4.015625 -1.203125 6.3125q-1.203125 2.28125 -3.5 3.5625q-2.296875 1.265625 -5.0 1.265625q-4.359375 0 -7.046875 -2.796875q-2.6875 -2.796875 -2.6875 -8.046875zm3.609375 0q0 3.984375 1.734375 5.96875q1.75 1.984375 4.390625 1.984375q2.609375 0 4.34375 -1.984375q1.75 -2.0 1.75 -6.078125q0 -3.859375 -1.75 -5.828125q-1.75 -1.984375 -4.34375 -1.984375q-2.640625 0 -4.390625 1.96875q-1.734375 1.96875 -1.734375 5.953125zm18.636719 0q0 -5.765625 3.203125 -8.53125q2.671875 -2.3125 6.53125 -2.3125q4.265625 0 6.984375 2.8125q2.71875 2.796875 2.71875 7.734375q0 4.015625 -1.203125 6.3125q-1.203125 2.28125 -3.5 3.5625q-2.296875 1.265625 -5.0 1.265625q-4.359375 0 -7.046875 -2.796875q-2.6875 -2.796875 -2.6875 -8.046875zm3.609375 0q0 3.984375 1.734375 5.96875q1.75 1.984375 4.390625 1.984375q2.609375 0 4.34375 -1.984375q1.75 -2.0 1.75 -6.078125q0 -3.859375 -1.75 -5.828125q-1.75 -1.984375 -4.34375 -1.984375q-2.640625 0 -4.390625 1.96875q-1.734375 1.96875 -1.734375 5.953125zm33.402344 10.375l0 -2.625q-1.96875 3.09375 -5.796875 3.09375q-2.484375 0 -4.5625 -1.359375q-2.078125 -1.375 -3.21875 -3.828125q-1.140625 -2.453125 -1.140625 -5.640625q0 -3.09375 1.03125 -5.625q1.03125 -2.53125 3.09375 -3.875q2.078125 -1.359375 4.640625 -1.359375q1.875 0 3.328125 0.796875q1.46875 0.796875 2.390625 2.0625l0 -10.28125l3.5 0l0 28.640625l-3.265625 0zm-11.109375 -10.359375q0 3.984375 1.671875 5.96875q1.6875 1.96875 3.96875 1.96875q2.3125 0 3.921875 -1.875q1.609375 -1.890625 1.609375 -5.765625q0 -4.25 -1.640625 -6.234375q-1.640625 -2.0 -4.046875 -2.0q-2.34375 0 -3.921875 1.921875q-1.5625 1.90625 -1.5625 6.015625zm30.171875 1.15625l3.578125 -0.3125q0.25 2.15625 1.171875 3.53125q0.9375 1.375 2.890625 2.234375q1.953125 0.84375 4.390625 0.84375q2.171875 0 3.828125 -0.640625q1.65625 -0.65625 2.46875 -1.78125q0.8125 -1.125 0.8125 -2.453125q0 -1.34375 -0.78125 -2.34375q-0.78125 -1.015625 -2.578125 -1.6875q-1.15625 -0.453125 -5.109375 -1.390625q-3.9375 -0.953125 -5.515625 -1.796875q-2.046875 -1.078125 -3.0625 -2.671875q-1.0 -1.59375 -1.0 -3.5625q0 -2.171875 1.234375 -4.046875q1.234375 -1.890625 3.59375 -2.859375q2.359375 -0.984375 5.25 -0.984375q3.1875 0 5.609375 1.03125q2.4375 1.015625 3.75 3.015625q1.3125 1.984375 1.40625 4.515625l-3.640625 0.265625q-0.28125 -2.71875 -1.984375 -4.09375q-1.6875 -1.390625 -4.984375 -1.390625q-3.4375 0 -5.015625 1.265625q-1.5625 1.25 -1.5625 3.03125q0 1.546875 1.109375 2.53125q1.09375 1.0 5.703125 2.046875q4.625 1.046875 6.34375 1.828125q2.5 1.15625 3.6875 2.921875q1.203125 1.765625 1.203125 4.0625q0 2.296875 -1.3125 4.3125q-1.3125 2.015625 -3.765625 3.140625q-2.4375 1.125 -5.515625 1.125q-3.875 0 -6.515625 -1.125q-2.625 -1.140625 -4.125 -3.40625q-1.484375 -2.28125 -1.5625 -5.15625zm41.117188 9.203125l0 -3.046875q-2.421875 3.515625 -6.578125 3.515625q-1.84375 0 -3.4375 -0.703125q-1.59375 -0.703125 -2.359375 -1.765625q-0.765625 -1.0625 -1.078125 -2.609375q-0.21875 -1.03125 -0.21875 -3.28125l0 -12.859375l3.515625 0l0 11.515625q0 2.75 0.21875 3.703125q0.328125 1.390625 1.390625 2.1875q1.078125 0.78125 2.671875 0.78125q1.578125 0 2.953125 -0.8125q1.390625 -0.8125 1.96875 -2.203125q0.578125 -1.390625 0.578125 -4.046875l0 -11.125l3.515625 0l0 20.75l-3.140625 0zm8.011719 1.71875l3.40625 0.515625q0.21875 1.578125 1.203125 2.296875q1.296875 0.984375 3.5625 0.984375q2.453125 0 3.78125 -0.984375q1.328125 -0.96875 1.796875 -2.734375q0.265625 -1.078125 0.25 -4.515625q-2.3125 2.71875 -5.75 2.71875q-4.265625 0 -6.609375 -3.078125q-2.34375 -3.09375 -2.34375 -7.40625q0 -2.96875 1.0625 -5.484375q1.078125 -2.515625 3.109375 -3.875q2.046875 -1.375 4.8125 -1.375q3.671875 0 6.046875 2.96875l0 -2.5l3.25 0l0 17.9375q0 4.84375 -1.0 6.859375q-0.984375 2.03125 -3.125 3.203125q-2.125 1.171875 -5.25 1.171875q-3.71875 0 -6.0 -1.671875q-2.28125 -1.671875 -2.203125 -5.03125zm2.90625 -12.46875q0 4.09375 1.609375 5.96875q1.625 1.875 4.078125 1.875q2.421875 0 4.0625 -1.859375q1.640625 -1.875 1.640625 -5.859375q0 -3.8125 -1.703125 -5.734375q-1.6875 -1.9375 -4.0625 -1.9375q-2.34375 0 -3.984375 1.90625q-1.640625 1.890625 -1.640625 5.640625zm33.51172 8.1875q-1.953125 1.65625 -3.765625 2.34375q-1.796875 0.6875 -3.875 0.6875q-3.40625 0 -5.25 -1.671875q-1.828125 -1.671875 -1.828125 -4.265625q0 -1.53125 0.6875 -2.78125q0.6875 -1.265625 1.8125 -2.015625q1.125 -0.765625 2.53125 -1.15625q1.03125 -0.28125 3.125 -0.53125q4.265625 -0.515625 6.265625 -1.21875q0.03125 -0.71875 0.03125 -0.90625q0 -2.15625 -1.0 -3.03125q-1.34375 -1.1875 -4.0 -1.1875q-2.484375 0 -3.671875 0.875q-1.171875 0.859375 -1.75 3.0625l-3.4375 -0.46875q0.46875 -2.203125 1.546875 -3.5625q1.078125 -1.359375 3.109375 -2.09375q2.03125 -0.734375 4.703125 -0.734375q2.65625 0 4.3125 0.625q1.671875 0.625 2.453125 1.578125q0.78125 0.953125 1.09375 2.390625q0.171875 0.90625 0.171875 3.25l0 4.6875q0 4.890625 0.21875 6.203125q0.234375 1.296875 0.890625 2.484375l-3.671875 0q-0.546875 -1.09375 -0.703125 -2.5625zm-0.296875 -7.84375q-1.90625 0.78125 -5.734375 1.328125q-2.171875 0.3125 -3.078125 0.703125q-0.890625 0.390625 -1.375 1.140625q-0.484375 0.75 -0.484375 1.671875q0 1.40625 1.0625 2.34375q1.0625 0.9375 3.109375 0.9375q2.03125 0 3.609375 -0.890625q1.59375 -0.890625 2.328125 -2.4375q0.5625 -1.1875 0.5625 -3.515625l0 -1.28125zm8.964844 10.40625l0 -20.75l3.171875 0l0 3.15625q1.203125 -2.21875 2.234375 -2.921875q1.03125 -0.703125 2.25 -0.703125q1.78125 0 3.625 1.140625l-1.21875 3.265625q-1.28125 -0.765625 -2.578125 -0.765625q-1.15625 0 -2.078125 0.703125q-0.90625 0.6875 -1.296875 1.90625q-0.59375 1.875 -0.59375 4.109375l0 10.859375l-3.515625 0z" fill-rule="nonzero"/></g></svg>